<?xml version="1.0" encoding="UTF-8" standalone="no"?>
<svg
   xmlns:dc="http://purl.org/dc/elements/1.1/"
   xmlns:cc="http://creativecommons.org/ns#"
   xmlns:rdf="http://www.w3.org/1999/02/22-rdf-syntax-ns#"
   xmlns:svg="http://www.w3.org/2000/svg"
   xmlns="http://www.w3.org/2000/svg"
   xmlns:sodipodi="http://sodipodi.sourceforge.net/DTD/sodipodi-0.dtd"
   xmlns:inkscape="http://www.inkscape.org/namespaces/inkscape"
   width="210mm"
   height="297mm"
   viewBox="0 0 210 297"
   version="1.1"
   id="svg8"
   inkscape:version="1.0.2 (1.0.2+r75+1)"
   sodipodi:docname="paths.svg">
  <defs
     id="defs2" />
  <sodipodi:namedview
     id="base"
     pagecolor="#ffffff"
     bordercolor="#666666"
     borderopacity="1.0"
     inkscape:pageopacity="0.0"
     inkscape:pageshadow="2"
     inkscape:zoom="0.3667677"
     inkscape:cx="992.78265"
     inkscape:cy="2005.988"
     inkscape:document-units="mm"
     inkscape:current-layer="layer1"
     inkscape:document-rotation="0"
     showgrid="false"
     inkscape:window-width="950"
     inkscape:window-height="1021"
     inkscape:window-x="960"
     inkscape:window-y="25"
     inkscape:window-maximized="0" />
  <metadata
     id="metadata5">
    <rdf:RDF>
      <cc:Work
         rdf:about="">
        <dc:format>image/svg+xml</dc:format>
        <dc:type
           rdf:resource="http://purl.org/dc/dcmitype/StillImage" />
        <dc:title></dc:title>
      </cc:Work>
    </rdf:RDF>
  </metadata>
  <g
     inkscape:label="Capa 1"
     inkscape:groupmode="layer"
     id="layer1">
    <rect
       style="fill:#ffff00;stroke:none;stroke-width:0.356115;stroke-linecap:square;paint-order:markers stroke fill"
       id="rect118-5-1"
       width="38.171738"
       height="76.092316"
       x="151.62401"
       y="489.73978"
       inkscape:export-xdpi="40.154751"
       inkscape:export-ydpi="40.154751" />
    <rect
       style="fill:#ffff00;stroke-width:0.702421;stroke-linecap:square;paint-order:markers stroke fill"
       id="rect22"
       width="126.96697"
       height="89.003754"
       x="297.15738"
       y="-147.33627"
       inkscape:export-xdpi="40.154751"
       inkscape:export-ydpi="40.154751" />
    <path
       style="fill:#ff0000;stroke:#000000;stroke-width:0.152478px;stroke-linecap:butt;stroke-linejoin:miter;stroke-opacity:1"
       d="m 310.8343,-59.141344 16.9354,-33.867183 39.96978,-0.106905 14.32828,33.42317 5.59894,-33.604876 9.40935,-29.153522 17.10787,18.14205 8.55394,-1.95654 -26.0056,-39.70152 -15.85049,26.67599 -59.31845,-4.09985 -23.01788,23.03854 21.46261,-10.31656 z"
       id="path10"
       inkscape:export-xdpi="40.154751"
       inkscape:export-ydpi="40.154751" />
    <rect
       style="fill:#ffff00;stroke-width:0.702421;stroke-linecap:square;paint-order:markers stroke fill"
       id="rect74"
       width="126.96697"
       height="89.003754"
       x="424.12433"
       y="-147.33627"
       inkscape:export-xdpi="40.154751"
       inkscape:export-ydpi="40.154751" />
    <path
       style="fill:#ff0000;stroke:#000000;stroke-width:0.152478px;stroke-linecap:butt;stroke-linejoin:miter;stroke-opacity:1"
       d="m 437.80126,-59.141344 16.9354,-33.867183 39.96978,-0.106905 14.32826,33.42317 5.59895,-33.604876 9.40934,-29.153522 17.10788,18.14205 8.55393,-1.95654 -26.00559,-39.70152 -15.85049,26.67599 -59.31845,-4.09985 -23.01789,23.03854 21.46262,-10.31656 z"
       id="path76"
       inkscape:export-xdpi="40.154751"
       inkscape:export-ydpi="40.154751" />
    <rect
       style="fill:#ffff00;stroke-width:0.702421;stroke-linecap:square;paint-order:markers stroke fill"
       id="rect78"
       width="126.96697"
       height="89.003754"
       x="297.15738"
       y="-58.332523"
       inkscape:export-xdpi="40.154751"
       inkscape:export-ydpi="40.154751" />
    <path
       style="fill:#ff0000;stroke:#000000;stroke-width:0.152478px;stroke-linecap:butt;stroke-linejoin:miter;stroke-opacity:1"
       d="m 310.8343,29.862405 16.9354,-33.8671819 39.96978,-0.1069057 14.32828,33.4231706 5.59894,-33.6048762 9.40935,-29.1535188 17.10787,18.142052 8.55394,-1.956545 -26.0056,-39.701515 -15.85049,26.675986 -59.31845,-4.099852 -23.01788,23.038541 21.46261,-10.31656 z"
       id="path80"
       inkscape:export-xdpi="40.154751"
       inkscape:export-ydpi="40.154751" />
    <rect
       style="fill:#ffff00;stroke-width:0.702421;stroke-linecap:square;paint-order:markers stroke fill"
       id="rect82"
       width="126.96697"
       height="89.003754"
       x="424.12433"
       y="-58.332523"
       inkscape:export-xdpi="40.154751"
       inkscape:export-ydpi="40.154751" />
    <path
       style="fill:#ff0000;stroke:#000000;stroke-width:0.152478px;stroke-linecap:butt;stroke-linejoin:miter;stroke-opacity:1"
       d="m 437.80126,29.862405 16.9354,-33.8671819 39.96978,-0.1069057 14.32826,33.4231706 5.59895,-33.6048762 9.40934,-29.1535188 17.10788,18.142052 8.55393,-1.956545 -26.00559,-39.701515 -15.85049,26.675986 -59.31845,-4.099852 -23.01789,23.038541 21.46262,-10.31656 z"
       id="path84"
       inkscape:export-xdpi="40.154751"
       inkscape:export-ydpi="40.154751" />
    <rect
       style="fill:#ffff00;stroke-width:0.702421;stroke-linecap:square;paint-order:markers stroke fill"
       id="rect86"
       width="126.96697"
       height="89.003754"
       x="551.09131"
       y="-147.33627"
       inkscape:export-xdpi="40.154751"
       inkscape:export-ydpi="40.154751" />
    <path
       style="fill:#ff0000;stroke:#000000;stroke-width:0.152478px;stroke-linecap:butt;stroke-linejoin:miter;stroke-opacity:1"
       d="m 564.76823,-59.141344 16.9354,-33.867183 39.96978,-0.106905 14.32828,33.42317 5.59894,-33.604876 9.40935,-29.153522 17.10787,18.14205 8.55394,-1.95654 -26.0056,-39.70152 -15.85048,26.67599 -59.31846,-4.09985 -23.01788,23.03854 21.46262,-10.31656 z"
       id="path88"
       inkscape:export-xdpi="40.154751"
       inkscape:export-ydpi="40.154751" />
    <rect
       style="fill:#ffff00;stroke-width:0.702421;stroke-linecap:square;paint-order:markers stroke fill"
       id="rect90"
       width="126.96697"
       height="89.003754"
       x="551.09131"
       y="-58.332523"
       inkscape:export-xdpi="40.154751"
       inkscape:export-ydpi="40.154751" />
    <path
       style="fill:#ff0000;stroke:#000000;stroke-width:0.152478px;stroke-linecap:butt;stroke-linejoin:miter;stroke-opacity:1"
       d="m 564.76823,29.862405 16.9354,-33.8671819 39.96978,-0.1069057 14.32828,33.4231706 5.59894,-33.6048762 9.40935,-29.1535188 17.10787,18.142052 8.55394,-1.956545 -26.0056,-39.701515 -15.85048,26.675986 -59.31846,-4.099852 -23.01788,23.038541 21.46262,-10.31656 z"
       id="path92"
       inkscape:export-xdpi="40.154751"
       inkscape:export-ydpi="40.154751" />
    <text
       xml:space="preserve"
       style="font-size:26.6083px;line-height:1.25;font-family:sans-serif;letter-spacing:0px;word-spacing:0px;stroke-width:0.665208"
       x="342.65707"
       y="-96.912392"
       id="text96"
       inkscape:export-xdpi="40"
       inkscape:export-ydpi="40"
       transform="scale(0.99920874,1.0007919)"><tspan
         sodipodi:role="line"
         id="tspan94"
         x="342.65707"
         y="-96.912392"
         style="stroke-width:0.665208">0</tspan></text>
    <text
       xml:space="preserve"
       style="font-size:26.6083px;line-height:1.25;font-family:sans-serif;letter-spacing:0px;word-spacing:0px;stroke-width:0.665208"
       x="474.45236"
       y="-96.912392"
       id="text100"
       inkscape:export-xdpi="40"
       inkscape:export-ydpi="40"
       transform="scale(0.99920874,1.0007919)"><tspan
         sodipodi:role="line"
         id="tspan98"
         x="474.45236"
         y="-96.912392"
         style="stroke-width:0.665208">1</tspan></text>
    <text
       xml:space="preserve"
       style="font-size:26.6083px;line-height:1.25;font-family:sans-serif;letter-spacing:0px;word-spacing:0px;stroke-width:0.665208"
       x="602.52808"
       y="-96.912392"
       id="text104"
       inkscape:export-xdpi="40"
       inkscape:export-ydpi="40"
       transform="scale(0.99920874,1.0007919)"><tspan
         sodipodi:role="line"
         id="tspan102"
         x="602.52808"
         y="-96.912392"
         style="stroke-width:0.665208">2</tspan></text>
    <text
       xml:space="preserve"
       style="font-size:26.6083px;line-height:1.25;font-family:sans-serif;letter-spacing:0px;word-spacing:0px;stroke-width:0.665208"
       x="342.65707"
       y="-7.5216851"
       id="text108"
       inkscape:export-xdpi="40"
       inkscape:export-ydpi="40"
       transform="scale(0.99920874,1.0007919)"><tspan
         sodipodi:role="line"
         id="tspan106"
         x="342.65707"
         y="-7.5216851"
         style="stroke-width:0.665208">3</tspan></text>
    <text
       xml:space="preserve"
       style="font-size:26.6083px;line-height:1.25;font-family:sans-serif;letter-spacing:0px;word-spacing:0px;stroke-width:0.665208"
       x="474.45236"
       y="-7.5216851"
       id="text112"
       inkscape:export-xdpi="40"
       inkscape:export-ydpi="40"
       transform="scale(0.99920874,1.0007919)"><tspan
         sodipodi:role="line"
         id="tspan110"
         x="474.45236"
         y="-7.5216851"
         style="stroke-width:0.665208">4</tspan></text>
    <text
       xml:space="preserve"
       style="font-size:26.6083px;line-height:1.25;font-family:sans-serif;letter-spacing:0px;word-spacing:0px;stroke-width:0.665208"
       x="602.52808"
       y="-7.5216851"
       id="text116"
       inkscape:export-xdpi="40"
       inkscape:export-ydpi="40"
       transform="scale(0.99920874,1.0007919)"><tspan
         sodipodi:role="line"
         id="tspan114"
         x="602.52808"
         y="-7.5216851"
         style="stroke-width:0.665208">5</tspan></text>
    <rect
       style="fill:#ffff00;stroke-width:0.702421;stroke-linecap:square;paint-order:markers stroke fill"
       id="rect118"
       width="126.96697"
       height="89.003754"
       x="297.15738"
       y="105.25686"
       inkscape:export-xdpi="40.154751"
       inkscape:export-ydpi="40.154751" />
    <path
       style="fill:#ff0000;stroke:#000000;stroke-width:0.152478px;stroke-linecap:butt;stroke-linejoin:miter;stroke-opacity:1"
       d="m 310.8343,193.45179 16.9354,-33.86719 39.96978,-0.1069 14.32828,33.42317 5.59894,-33.60488 9.40935,-29.15352 17.10787,18.14205 8.55394,-1.95654 -26.0056,-39.70152 -15.85049,26.67599 -59.31845,-4.09985 -23.01788,23.03854 21.46261,-10.31656 z"
       id="path120"
       inkscape:export-xdpi="40.154751"
       inkscape:export-ydpi="40.154751" />
    <rect
       style="fill:#ffff00;stroke-width:0.702421;stroke-linecap:square;paint-order:markers stroke fill"
       id="rect122"
       width="126.96697"
       height="89.003754"
       x="424.12433"
       y="105.25686"
       inkscape:export-xdpi="40.154751"
       inkscape:export-ydpi="40.154751" />
    <path
       style="fill:#ff0000;stroke:#000000;stroke-width:0.152478px;stroke-linecap:butt;stroke-linejoin:miter;stroke-opacity:1"
       d="m 437.80126,193.45179 16.9354,-33.86719 39.96978,-0.1069 14.32826,33.42317 5.59895,-33.60488 9.40934,-29.15352 17.10788,18.14205 8.55393,-1.95654 -26.00559,-39.70152 -15.85049,26.67599 -59.31845,-4.09985 -23.01789,23.03854 21.46262,-10.31656 z"
       id="path124"
       inkscape:export-xdpi="40.154751"
       inkscape:export-ydpi="40.154751" />
    <rect
       style="fill:#ffff00;stroke-width:0.702421;stroke-linecap:square;paint-order:markers stroke fill"
       id="rect126"
       width="126.96697"
       height="89.003754"
       x="297.15738"
       y="194.2606"
       inkscape:export-xdpi="40.154751"
       inkscape:export-ydpi="40.154751" />
    <path
       style="fill:#ff0000;stroke:#000000;stroke-width:0.152478px;stroke-linecap:butt;stroke-linejoin:miter;stroke-opacity:1"
       d="m 310.8343,282.45553 16.9354,-33.86718 39.96978,-0.1069 14.32828,33.42317 5.59894,-33.60488 9.40935,-29.15352 17.10787,18.14205 8.55394,-1.95654 -26.0056,-39.70152 -15.85049,26.67599 -59.31845,-4.09985 -23.01788,23.03854 21.46261,-10.31656 z"
       id="path128"
       inkscape:export-xdpi="40.154751"
       inkscape:export-ydpi="40.154751" />
    <rect
       style="fill:#ffff00;stroke-width:0.702421;stroke-linecap:square;paint-order:markers stroke fill"
       id="rect130"
       width="126.96697"
       height="89.003754"
       x="424.12433"
       y="194.2606"
       inkscape:export-xdpi="40.154751"
       inkscape:export-ydpi="40.154751" />
    <path
       style="fill:#ff0000;stroke:#000000;stroke-width:0.152478px;stroke-linecap:butt;stroke-linejoin:miter;stroke-opacity:1"
       d="m 437.80126,282.45553 16.9354,-33.86718 39.96978,-0.1069 14.32826,33.42317 5.59895,-33.60488 9.40934,-29.15352 17.10788,18.14205 8.55393,-1.95654 -26.00559,-39.70152 -15.85049,26.67599 -59.31845,-4.09985 -23.01789,23.03854 21.46262,-10.31656 z"
       id="path132"
       inkscape:export-xdpi="40.154751"
       inkscape:export-ydpi="40.154751" />
    <rect
       style="fill:#ffff00;stroke-width:0.702421;stroke-linecap:square;paint-order:markers stroke fill"
       id="rect134"
       width="126.96697"
       height="89.003754"
       x="551.09131"
       y="105.25686"
       inkscape:export-xdpi="40.154751"
       inkscape:export-ydpi="40.154751" />
    <path
       style="fill:#ff0000;stroke:#000000;stroke-width:0.152478px;stroke-linecap:butt;stroke-linejoin:miter;stroke-opacity:1"
       d="m 564.76823,193.45179 16.9354,-33.86719 39.96978,-0.1069 14.32828,33.42317 5.59894,-33.60488 9.40935,-29.15352 17.10787,18.14205 8.55394,-1.95654 -26.0056,-39.70152 -15.85048,26.67599 -59.31846,-4.09985 -23.01788,23.03854 21.46262,-10.31656 z"
       id="path136"
       inkscape:export-xdpi="40.154751"
       inkscape:export-ydpi="40.154751" />
    <rect
       style="fill:#ffff00;stroke-width:0.702421;stroke-linecap:square;paint-order:markers stroke fill"
       id="rect138"
       width="126.96697"
       height="89.003754"
       x="551.09131"
       y="194.2606"
       inkscape:export-xdpi="40.154751"
       inkscape:export-ydpi="40.154751" />
    <path
       style="fill:#ff0000;stroke:#000000;stroke-width:0.152478px;stroke-linecap:butt;stroke-linejoin:miter;stroke-opacity:1"
       d="m 564.76823,282.45553 16.9354,-33.86718 39.96978,-0.1069 14.32828,33.42317 5.59894,-33.60488 9.40935,-29.15352 17.10787,18.14205 8.55394,-1.95654 -26.0056,-39.70152 -15.85048,26.67599 -59.31846,-4.09985 -23.01788,23.03854 21.46262,-10.31656 z"
       id="path140"
       inkscape:export-xdpi="40.154751"
       inkscape:export-ydpi="40.154751" />
    <text
       xml:space="preserve"
       style="font-size:26.6083px;line-height:1.25;font-family:sans-serif;letter-spacing:0px;word-spacing:0px;stroke-width:0.665208"
       x="342.65707"
       y="155.48087"
       id="text144"
       inkscape:export-xdpi="40"
       inkscape:export-ydpi="40"
       transform="scale(0.99920873,1.0007919)"><tspan
         sodipodi:role="line"
         id="tspan142"
         x="342.65707"
         y="155.48087"
         style="stroke-width:0.665208">0</tspan></text>
    <text
       xml:space="preserve"
       style="font-size:26.6083px;line-height:1.25;font-family:sans-serif;letter-spacing:0px;word-spacing:0px;stroke-width:0.665208"
       x="474.45236"
       y="155.48087"
       id="text148"
       inkscape:export-xdpi="40"
       inkscape:export-ydpi="40"
       transform="scale(0.99920873,1.0007919)"><tspan
         sodipodi:role="line"
         id="tspan146"
         x="474.45236"
         y="155.48087"
         style="stroke-width:0.665208">1</tspan></text>
    <text
       xml:space="preserve"
       style="font-size:26.6083px;line-height:1.25;font-family:sans-serif;letter-spacing:0px;word-spacing:0px;stroke-width:0.665208"
       x="602.52808"
       y="155.48087"
       id="text152"
       inkscape:export-xdpi="40"
       inkscape:export-ydpi="40"
       transform="scale(0.99920873,1.0007919)"><tspan
         sodipodi:role="line"
         id="tspan150"
         x="602.52808"
         y="155.48087"
         style="stroke-width:0.665208">2</tspan></text>
    <text
       xml:space="preserve"
       style="font-size:26.6083px;line-height:1.25;font-family:sans-serif;letter-spacing:0px;word-spacing:0px;stroke-width:0.665208"
       x="342.65707"
       y="244.87158"
       id="text156"
       inkscape:export-xdpi="40"
       inkscape:export-ydpi="40"
       transform="scale(0.99920873,1.0007919)"><tspan
         sodipodi:role="line"
         id="tspan154"
         x="342.65707"
         y="244.87158"
         style="stroke-width:0.665208">3</tspan></text>
    <text
       xml:space="preserve"
       style="font-size:26.6083px;line-height:1.25;font-family:sans-serif;letter-spacing:0px;word-spacing:0px;stroke-width:0.665208"
       x="474.45236"
       y="244.87158"
       id="text160"
       inkscape:export-xdpi="40"
       inkscape:export-ydpi="40"
       transform="scale(0.99920873,1.0007919)"><tspan
         sodipodi:role="line"
         id="tspan158"
         x="474.45236"
         y="244.87158"
         style="stroke-width:0.665208">4</tspan></text>
    <text
       xml:space="preserve"
       style="font-size:26.6083px;line-height:1.25;font-family:sans-serif;letter-spacing:0px;word-spacing:0px;stroke-width:0.665208"
       x="602.52808"
       y="244.87158"
       id="text164"
       inkscape:export-xdpi="40"
       inkscape:export-ydpi="40"
       transform="scale(0.99920873,1.0007919)"><tspan
         sodipodi:role="line"
         id="tspan162"
         x="602.52808"
         y="244.87158"
         style="stroke-width:0.665208">5</tspan></text>
    <rect
       style="fill:#ffff00;stroke-width:0.702421;stroke-linecap:square;paint-order:markers stroke fill"
       id="rect118-5"
       width="126.96697"
       height="89.003754"
       x="239.85277"
       y="344.96689"
       inkscape:export-xdpi="40.154751"
       inkscape:export-ydpi="40.154751" />
    <path
       style="fill:#ff0000;stroke:#000000;stroke-width:0.152478px;stroke-linecap:butt;stroke-linejoin:miter;stroke-opacity:1"
       d="m 253.52969,433.16183 16.9354,-33.86719 39.96978,-0.1069 14.32828,33.42317 5.59894,-33.60488 9.40935,-29.15352 17.10787,18.14205 8.55394,-1.95654 -26.0056,-39.70152 -15.85049,26.67599 -59.31845,-4.09985 -23.01788,23.03854 21.46261,-10.31656 z"
       id="path120-6"
       inkscape:export-xdpi="40.154751"
       inkscape:export-ydpi="40.154751" />
    <text
       xml:space="preserve"
       style="font-size:26.6083px;line-height:1.25;font-family:sans-serif;letter-spacing:0px;word-spacing:0px;stroke-width:0.665208"
       x="285.3071"
       y="395.00122"
       id="text144-2"
       inkscape:export-xdpi="40"
       inkscape:export-ydpi="40"
       transform="scale(0.99920873,1.0007919)"><tspan
         sodipodi:role="line"
         id="tspan142-9"
         x="285.3071"
         y="395.00122"
         style="stroke-width:0.665208">0</tspan></text>
    <path
       style="fill:#00ffff;stroke:#000000;stroke-width:0.179803px;stroke-linecap:butt;stroke-linejoin:miter;stroke-opacity:1"
       d="m 153.18842,565.05709 14.59242,-13.35175 -0.29395,-15.86574 10.79861,18.34649 -1.7599,10.98781 8.35945,-13.39552 -10.39861,-17.65434 2.34654,-16.82377 4.48594,12.9661 6.52628,10.28742 -4.54641,-18.89954 -4.91306,-9.89342 -7.3329,-5.07804 8.34846,-5.46219 -9.09282,-10.37494 -9.4594,8.09859 4.83972,8.0986 -7.25957,4.4214 -0.5306,13.88308 4.32636,7.17928 -0.21998,18.36108 z"
       id="path198"
       inkscape:export-xdpi="40"
       inkscape:export-ydpi="40" />
    <rect
       style="fill:#ff0000;stroke:none;stroke-width:0.356115;stroke-linecap:square;paint-order:markers stroke fill"
       id="rect220"
       width="38.171738"
       height="76.092316"
       x="189.79575"
       y="489.73978"
       inkscape:export-xdpi="40.154751"
       inkscape:export-ydpi="40.154751" />
    <path
       style="fill:#00ffff;stroke:#000000;stroke-width:0.179803px;stroke-linecap:butt;stroke-linejoin:miter;stroke-opacity:1"
       d="m 191.36015,565.05709 14.59243,-13.35175 -0.29395,-15.86574 10.7986,18.34649 -1.7599,10.98781 8.35946,-13.39552 -10.39862,-17.65434 2.34654,-16.82377 4.48594,12.9661 6.52628,10.28742 -4.54641,-18.89954 -4.91306,-9.89342 -7.33289,-5.07804 8.34845,-5.46219 -9.09282,-10.37494 -9.4594,8.09859 4.83973,8.0986 -7.25957,4.4214 -0.5306,13.88308 4.32635,7.17928 -0.21998,18.36108 z"
       id="path222"
       inkscape:export-xdpi="40"
       inkscape:export-ydpi="40" />
    <rect
       style="fill:#808000;stroke:none;stroke-width:0.356115;stroke-linecap:square;paint-order:markers stroke fill"
       id="rect118-5-1-2"
       width="38.171738"
       height="76.092316"
       x="227.9675"
       y="489.73978"
       inkscape:export-xdpi="40.154751"
       inkscape:export-ydpi="40.154751" />
    <path
       style="fill:#00ffff;stroke:#000000;stroke-width:0.179803px;stroke-linecap:butt;stroke-linejoin:miter;stroke-opacity:1"
       d="m 229.53189,565.0571 14.59242,-13.35175 -0.29395,-15.86574 10.79861,18.34649 -1.7599,10.98781 8.35946,-13.39552 -10.39862,-17.65434 2.34653,-16.82377 4.48594,12.9661 6.52628,10.28742 -4.5464,-18.89954 -4.91306,-9.89342 -7.3329,-5.07804 8.34846,-5.46219 -9.09281,-10.37494 -9.45941,8.09859 4.83972,8.0986 -7.25957,4.4214 -0.5306,13.88308 4.32637,7.17928 -0.21999,18.36108 z"
       id="path198-7"
       inkscape:export-xdpi="40"
       inkscape:export-ydpi="40" />
    <rect
       style="fill:#800000;stroke:none;stroke-width:0.356115;stroke-linecap:square;paint-order:markers stroke fill"
       id="rect220-0"
       width="38.171738"
       height="76.092316"
       x="266.13922"
       y="489.73978"
       inkscape:export-xdpi="40.154751"
       inkscape:export-ydpi="40.154751" />
    <path
       style="fill:#00ffff;stroke:#000000;stroke-width:0.179803px;stroke-linecap:butt;stroke-linejoin:miter;stroke-opacity:1"
       d="m 267.70362,565.0571 14.59243,-13.35175 -0.29395,-15.86574 10.7986,18.34649 -1.7599,10.98781 8.35947,-13.39552 -10.39863,-17.65434 2.34654,-16.82377 4.48594,12.9661 6.52629,10.28742 -4.54641,-18.89954 -4.91307,-9.89342 -7.33289,-5.07804 8.34846,-5.46219 -9.09282,-10.37494 -9.4594,8.09859 4.83973,8.0986 -7.25958,4.4214 -0.53059,13.88308 4.32635,7.17928 -0.21999,18.36108 z"
       id="path222-9"
       inkscape:export-xdpi="40"
       inkscape:export-ydpi="40" />
    <rect
       style="fill:#000080;stroke:none;stroke-width:0.356115;stroke-linecap:square;paint-order:markers stroke fill"
       id="rect260"
       width="38.171738"
       height="76.092316"
       x="151.62401"
       y="565.83209"
       inkscape:export-xdpi="40.154751"
       inkscape:export-ydpi="40.154751" />
    <path
       style="fill:#00ffff;stroke:#000000;stroke-width:0.179803px;stroke-linecap:butt;stroke-linejoin:miter;stroke-opacity:1"
       d="m 153.18842,641.14942 14.59242,-13.35176 -0.29395,-15.86573 10.79861,18.34648 -1.7599,10.98782 8.35945,-13.39552 -10.39861,-17.65434 2.34654,-16.82378 4.48594,12.96611 6.52628,10.28741 -4.54641,-18.89953 -4.91306,-9.89342 -7.3329,-5.07805 8.34846,-5.46218 -9.09282,-10.37495 -9.4594,8.0986 4.83972,8.09859 -7.25957,4.42141 -0.5306,13.88308 4.32636,7.17928 -0.21998,18.36108 z"
       id="path262"
       inkscape:export-xdpi="40"
       inkscape:export-ydpi="40" />
    <rect
       style="fill:#800080;stroke:none;stroke-width:0.356115;stroke-linecap:square;paint-order:markers stroke fill"
       id="rect264"
       width="38.171738"
       height="76.092316"
       x="189.79575"
       y="565.83209"
       inkscape:export-xdpi="40.154751"
       inkscape:export-ydpi="40.154751" />
    <path
       style="fill:#00ffff;stroke:#000000;stroke-width:0.179803px;stroke-linecap:butt;stroke-linejoin:miter;stroke-opacity:1"
       d="m 191.36015,641.14942 14.59243,-13.35176 -0.29395,-15.86573 10.7986,18.34648 -1.7599,10.98782 8.35946,-13.39552 -10.39862,-17.65434 2.34654,-16.82378 4.48594,12.96611 6.52628,10.28741 -4.54641,-18.89953 -4.91306,-9.89342 -7.33289,-5.07805 8.34845,-5.46218 -9.09282,-10.37495 -9.4594,8.0986 4.83973,8.09859 -7.25957,4.42141 -0.5306,13.88308 4.32635,7.17928 -0.21998,18.36108 z"
       id="path266"
       inkscape:export-xdpi="40"
       inkscape:export-ydpi="40" />
    <rect
       style="fill:#0000ff;stroke:none;stroke-width:0.356115;stroke-linecap:square;paint-order:markers stroke fill"
       id="rect268"
       width="38.171738"
       height="76.092316"
       x="227.96753"
       y="565.83209"
       inkscape:export-xdpi="40.154751"
       inkscape:export-ydpi="40.154751" />
    <path
       style="fill:#00ffff;stroke:#000000;stroke-width:0.179803px;stroke-linecap:butt;stroke-linejoin:miter;stroke-opacity:1"
       d="m 229.53189,641.14943 14.59242,-13.35176 -0.29395,-15.86573 10.79861,18.34648 -1.7599,10.98782 8.35946,-13.39552 -10.39862,-17.65434 2.34653,-16.82378 4.48594,12.96611 6.52628,10.28741 -4.5464,-18.89953 -4.91306,-9.89342 -7.3329,-5.07805 8.34846,-5.46218 -9.09281,-10.37495 -9.45941,8.0986 4.83972,8.09859 -7.25957,4.42141 -0.5306,13.88308 4.32637,7.17928 -0.21999,18.36108 z"
       id="path270"
       inkscape:export-xdpi="40"
       inkscape:export-ydpi="40" />
    <rect
       style="fill:#ff00ff;stroke:none;stroke-width:0.356115;stroke-linecap:square;paint-order:markers stroke fill"
       id="rect272"
       width="38.171738"
       height="76.092316"
       x="266.13925"
       y="565.83209"
       inkscape:export-xdpi="40.154751"
       inkscape:export-ydpi="40.154751" />
    <path
       style="fill:#00ffff;stroke:#000000;stroke-width:0.179803px;stroke-linecap:butt;stroke-linejoin:miter;stroke-opacity:1"
       d="m 267.70362,641.14943 14.59243,-13.35176 -0.29395,-15.86573 10.7986,18.34648 -1.7599,10.98782 8.35947,-13.39552 -10.39863,-17.65434 2.34654,-16.82378 4.48594,12.96611 6.52629,10.28741 -4.54641,-18.89953 -4.91307,-9.89342 -7.33289,-5.07805 8.34846,-5.46218 -9.09282,-10.37495 -9.4594,8.0986 4.83973,8.09859 -7.25958,4.42141 -0.53059,13.88308 4.32635,7.17928 -0.21999,18.36108 z"
       id="path274"
       inkscape:export-xdpi="40"
       inkscape:export-ydpi="40" />
  </g>
</svg>
