<?xml version="1.0" encoding="UTF-8" standalone="no"?>
<svg
   xmlns:dc="http://purl.org/dc/elements/1.1/"
   xmlns:cc="http://creativecommons.org/ns#"
   xmlns:rdf="http://www.w3.org/1999/02/22-rdf-syntax-ns#"
   xmlns:svg="http://www.w3.org/2000/svg"
   xmlns="http://www.w3.org/2000/svg"
   xmlns:sodipodi="http://sodipodi.sourceforge.net/DTD/sodipodi-0.dtd"
   xmlns:inkscape="http://www.inkscape.org/namespaces/inkscape"
   width="210mm"
   height="297mm"
   viewBox="0 0 210 297"
   version="1.1"
   id="svg8"
   inkscape:version="1.0.2 (1.0.2+r75+1)"
   sodipodi:docname="paths.svg">
  <defs
     id="defs2" />
  <sodipodi:namedview
     id="base"
     pagecolor="#ffffff"
     bordercolor="#666666"
     borderopacity="1.0"
     inkscape:pageopacity="0.0"
     inkscape:pageshadow="2"
     inkscape:zoom="0.55925402"
     inkscape:cx="1922.7699"
     inkscape:cy="-46.962052"
     inkscape:document-units="mm"
     inkscape:current-layer="layer1"
     inkscape:document-rotation="0"
     showgrid="false"
     inkscape:window-width="1920"
     inkscape:window-height="1031"
     inkscape:window-x="0"
     inkscape:window-y="25"
     inkscape:window-maximized="1" />
  <metadata
     id="metadata5">
    <rdf:RDF>
      <cc:Work
         rdf:about="">
        <dc:format>image/svg+xml</dc:format>
        <dc:type
           rdf:resource="http://purl.org/dc/dcmitype/StillImage" />
        <dc:title></dc:title>
      </cc:Work>
    </rdf:RDF>
  </metadata>
  <g
     inkscape:label="Capa 1"
     inkscape:groupmode="layer"
     id="layer1">
    <rect
       style="fill:#00ff00;stroke-width:0.699425;stroke-linecap:square;paint-order:markers stroke fill"
       id="rect22"
       width="126.52554"
       height="88.554008"
       x="297.15738"
       y="-147.33627"
       inkscape:export-xdpi="40.154751"
       inkscape:export-ydpi="40.154751" />
    <path
       style="fill:#ff0000;stroke:#000000;stroke-width:0.151828px;stroke-linecap:butt;stroke-linejoin:miter;stroke-opacity:1"
       d="m 310.78675,-59.587001 16.87652,-33.696049 39.83082,-0.106365 14.27846,33.25428 5.57948,-33.435068 9.37663,-29.006207 17.04839,18.05038 8.5242,-1.94666 -25.91518,-39.5009 -15.79538,26.54119 -59.11222,-4.07913 -22.93786,22.92212 21.388,-10.26443 z"
       id="path10"
       inkscape:export-xdpi="40.154751"
       inkscape:export-ydpi="40.154751" />
    <rect
       style="fill:#00ffff;stroke-width:0.699425;stroke-linecap:square;paint-order:markers stroke fill"
       id="rect74"
       width="126.52554"
       height="88.554008"
       x="423.68289"
       y="-147.33627"
       inkscape:export-xdpi="40.154751"
       inkscape:export-ydpi="40.154751" />
    <path
       style="fill:#ff0000;stroke:#000000;stroke-width:0.151828px;stroke-linecap:butt;stroke-linejoin:miter;stroke-opacity:1"
       d="m 437.31228,-59.587001 16.87652,-33.696049 39.83082,-0.106365 14.27845,33.25428 5.57948,-33.435068 9.37663,-29.006207 17.0484,18.05038 8.52419,-1.94666 -25.91518,-39.5009 -15.79538,26.54119 -59.11222,-4.07913 -22.93786,22.92212 21.388,-10.26443 z"
       id="path76"
       inkscape:export-xdpi="40.154751"
       inkscape:export-ydpi="40.154751" />
    <rect
       style="fill:#ffff00;stroke-width:0.699425;stroke-linecap:square;paint-order:markers stroke fill"
       id="rect78"
       width="126.52554"
       height="88.554008"
       x="297.15738"
       y="-58.782269"
       inkscape:export-xdpi="40.154751"
       inkscape:export-ydpi="40.154751" />
    <path
       style="fill:#ff0000;stroke:#000000;stroke-width:0.151828px;stroke-linecap:butt;stroke-linejoin:miter;stroke-opacity:1"
       d="m 310.78675,28.967004 16.87652,-33.6960478 39.83082,-0.1063655 14.27846,33.2542803 5.57948,-33.4350677 9.37663,-29.0062033 17.04839,18.050378 8.5242,-1.946658 -25.91518,-39.5009 -15.79538,26.54119 -59.11222,-4.079135 -22.93786,22.922125 21.388,-10.264429 z"
       id="path80"
       inkscape:export-xdpi="40.154751"
       inkscape:export-ydpi="40.154751" />
    <rect
       style="fill:#800000;stroke-width:0.699425;stroke-linecap:square;paint-order:markers stroke fill"
       id="rect82"
       width="126.52554"
       height="88.554008"
       x="423.68289"
       y="-58.782269"
       inkscape:export-xdpi="40.154751"
       inkscape:export-ydpi="40.154751" />
    <path
       style="fill:#ff0000;stroke:#000000;stroke-width:0.151828px;stroke-linecap:butt;stroke-linejoin:miter;stroke-opacity:1"
       d="m 437.31228,28.967004 16.87652,-33.6960478 39.83082,-0.1063655 14.27845,33.2542803 5.57948,-33.4350677 9.37663,-29.0062033 17.0484,18.050378 8.52419,-1.946658 -25.91518,-39.5009 -15.79538,26.54119 -59.11222,-4.079135 -22.93786,22.922125 21.388,-10.264429 z"
       id="path84"
       inkscape:export-xdpi="40.154751"
       inkscape:export-ydpi="40.154751" />
    <rect
       style="fill:#008000;stroke-width:0.699425;stroke-linecap:square;paint-order:markers stroke fill"
       id="rect86"
       width="126.52554"
       height="88.554008"
       x="550.20844"
       y="-147.33627"
       inkscape:export-xdpi="40.154751"
       inkscape:export-ydpi="40.154751" />
    <path
       style="fill:#ff0000;stroke:#000000;stroke-width:0.151828px;stroke-linecap:butt;stroke-linejoin:miter;stroke-opacity:1"
       d="m 563.83783,-59.587001 16.87652,-33.696049 39.83082,-0.106365 14.27846,33.25428 5.57948,-33.435068 9.37663,-29.006207 17.04839,18.05038 8.5242,-1.94666 -25.91518,-39.5009 -15.79538,26.54119 -59.11222,-4.07913 -22.93786,22.92212 21.388,-10.26443 z"
       id="path88"
       inkscape:export-xdpi="40.154751"
       inkscape:export-ydpi="40.154751" />
    <rect
       style="fill:#ff00ff;stroke-width:0.699425;stroke-linecap:square;paint-order:markers stroke fill"
       id="rect90"
       width="126.52554"
       height="88.554008"
       x="550.20844"
       y="-58.782269"
       inkscape:export-xdpi="40.154751"
       inkscape:export-ydpi="40.154751" />
    <path
       style="fill:#ff0000;stroke:#000000;stroke-width:0.151828px;stroke-linecap:butt;stroke-linejoin:miter;stroke-opacity:1"
       d="m 563.83783,28.967004 16.87652,-33.6960478 39.83082,-0.1063655 14.27846,33.2542803 5.57948,-33.4350677 9.37663,-29.0062033 17.04839,18.050378 8.5242,-1.946658 -25.91518,-39.5009 -15.79538,26.54119 -59.11222,-4.079135 -22.93786,22.922125 21.388,-10.264429 z"
       id="path92"
       inkscape:export-xdpi="40.154751"
       inkscape:export-ydpi="40.154751" />
  </g>
</svg>
